<svg width="15" height="15" viewBox="0 0 15 15" fill="none" xmlns="http://www.w3.org/2000/svg">
<path d="M7.47852 2.11726C6.09948 2.11726 4.72045 2.11726 3.34142 2.11726C2.57765 2.11726 2.1109 1.70439 2.1215 1.04804C2.13211 0.402279 2.58825 0 3.3202 0C6.08888 0 8.86816 0 11.6368 0C12.4006 0 12.878 0.423451 12.8673 1.0798C12.8567 1.71498 12.4112 2.11726 11.658 2.11726C10.2684 2.11726 8.87876 2.11726 7.47852 2.11726Z" fill="white"/>
<path d="M4.81619 11.6447C3.61749 11.6447 2.41879 11.6447 1.20949 11.6447C0.466931 11.6447 0.010789 11.253 0.000181051 10.6073C-0.0104269 9.94033 0.445715 9.52746 1.20949 9.51688C3.60688 9.51688 6.01488 9.51688 8.41228 9.51688C9.20787 9.51688 9.66401 9.90857 9.68523 10.5543C9.69584 11.2319 9.22909 11.6341 8.41228 11.6341C7.22419 11.6447 6.01488 11.6447 4.81619 11.6447Z" fill="white"/>
<path d="M4.80558 8.46944C3.60688 8.46944 2.39758 8.46944 1.19888 8.46944C0.466931 8.46944 0.0107891 8.06716 0.000181114 7.4214C-0.0104268 6.77564 0.445715 6.35219 1.16705 6.3416C3.60688 6.3416 6.04671 6.3416 8.47593 6.3416C9.21848 6.3416 9.67462 6.75447 9.68523 7.38964C9.69584 8.05658 9.2397 8.45886 8.45471 8.45886C7.24541 8.46944 6.02549 8.46944 4.80558 8.46944Z" fill="white"/>
<path d="M4.85862 14.8209C3.63871 14.8209 2.41879 14.8209 1.19888 14.8209C0.466931 14.8209 0.0107891 14.4186 0.000181114 13.7728C-0.0104268 13.127 0.445715 12.7036 1.16705 12.7036C3.60688 12.7036 6.04671 12.7036 8.47593 12.7036C9.21848 12.7036 9.67462 13.1059 9.68523 13.7516C9.69584 14.4186 9.22909 14.8209 8.45471 14.8209C7.26662 14.8209 6.05732 14.8209 4.85862 14.8209Z" fill="white"/>
<path d="M13.3025 8.46911C13.0903 8.46911 12.8782 8.47969 12.666 8.46911C12.072 8.43735 11.6477 7.98214 11.6477 7.41048C11.6477 6.85999 12.0614 6.39419 12.6236 6.36244C13.0797 6.33068 13.5359 6.33068 13.992 6.36244C14.5967 6.40478 14.9998 6.87058 14.9892 7.44224C14.9785 8.02448 14.5542 8.43735 13.939 8.46911C13.7268 8.46911 13.5147 8.46911 13.3025 8.46911Z" fill="white"/>
<path d="M13.3239 11.645C13.1117 11.645 12.8996 11.6556 12.6874 11.645C12.0934 11.6133 11.6585 11.1792 11.6479 10.597C11.6372 10.0148 12.0616 9.54896 12.6556 9.52778C13.0905 9.50661 13.5361 9.50661 13.971 9.52778C14.5756 9.55954 14.9894 10.0148 14.9894 10.597C14.9894 11.1792 14.565 11.6027 13.9498 11.645C13.7482 11.645 13.5361 11.6345 13.3239 11.645Z" fill="white"/>
<path d="M13.3235 14.8099C13.0902 14.8099 12.8674 14.8205 12.634 14.8099C12.0718 14.7676 11.6581 14.3229 11.6581 13.7619C11.6581 13.2008 12.0612 12.735 12.6234 12.7032C13.0796 12.6715 13.5357 12.6821 13.9918 12.7032C14.5965 12.735 15.0102 13.1902 14.9996 13.7725C14.989 14.3335 14.5859 14.757 14.0131 14.8099C13.7797 14.8311 13.5463 14.8099 13.3235 14.8099Z" fill="white"/>
</svg>
