<svg width="14" height="15" viewBox="0 0 14 15" fill="none" xmlns="http://www.w3.org/2000/svg">
<path d="M0 13.3863L1.36635 10.7971C2.69309 11.7724 4.43073 12.307 6.15352 12.307C7.99512 12.307 9.1585 11.6635 9.1585 10.609C9.1585 8.28721 1.97032 9.52979 1.97032 4.91094C1.97032 1.92576 4.57925 0 8.59909 0C10.5447 0 12.3467 0.435648 13.614 1.24259L12.3516 3.81192C11.2526 3.06438 9.84663 2.69309 8.41592 2.69309C6.47036 2.69309 5.33173 3.44063 5.33173 4.47529C5.31193 6.8565 12.5199 5.61391 12.5199 10.0694C12.5199 13.0744 9.86643 15.0001 5.82679 15.0001C3.46043 15.0051 1.22278 14.3021 0 13.3863Z" fill="white"/>
</svg>
