<svg width="19" height="27" viewBox="0 0 19 27" fill="none" xmlns="http://www.w3.org/2000/svg">
<path d="M9.07746 21.8464C7.20145 23.4198 5.44648 24.9328 3.57047 26.2641C2.90479 26.7483 1.81549 27.1719 1.21033 26.9298C0.605164 26.6877 0.0605164 25.5379 0 24.8117C0 17.3682 0 9.92469 0 2.48117C0 0.605164 1.02878 0 2.72324 0C6.95939 0 11.1955 0.0605164 15.4317 0C17.5498 0 18.2154 1.02878 18.2154 2.9653C18.1549 10.1062 18.2154 17.2472 18.1549 24.3881C18.1549 25.2353 17.6708 26.5667 17.0051 26.8693C16.3999 27.1719 15.1291 26.5667 14.4029 26.0826C12.5874 24.8117 10.9535 23.3593 9.07746 21.8464Z" fill="#BC0063"/>
<line x1="4.5" y1="4.5" x2="13.5" y2="4.5" stroke="white" stroke-linecap="round"/>
</svg>
