<svg width="26" height="27" viewBox="0 0 26 27" fill="none" xmlns="http://www.w3.org/2000/svg">
<path d="M18.1401 4.88065C18.1401 4.3175 18.1401 3.78563 18.1401 3.28505C18.1401 2.15875 19.0348 1.28273 20.1453 1.31402C21.1942 1.34531 22.0271 2.22132 22.0271 3.31634C22.0271 5.25608 22.0271 7.16454 22.0271 9.10429C22.0271 9.26072 22.058 9.38586 22.1814 9.47972C23.2919 10.7312 24.4025 11.9826 25.5131 13.2028C25.9758 13.7346 26.13 14.2978 25.8832 14.9548C25.6056 15.6431 25.0812 15.9873 24.3716 16.0498C23.9089 16.0811 23.4462 16.0498 23.0143 16.0498C22.9217 16.0498 22.8292 16.0498 22.7675 16.0498C22.3356 16.1124 22.058 16.394 22.058 16.8633C22.058 19.4287 22.058 21.9942 22.058 24.5597C22.058 24.8725 22.0888 25.1854 22.0271 25.4983C21.9346 26.3117 21.2559 26.9374 20.4538 26.9687C19.5284 27 18.6029 27 17.6466 26.9687C16.7519 26.9374 16.0733 26.1553 16.0733 25.248C16.0733 22.8702 16.0733 20.4925 16.0733 18.1147C16.0733 17.6141 15.7648 17.27 15.2712 17.27C13.883 17.27 12.4948 17.27 11.1374 17.27C10.6747 17.27 10.3045 17.6141 10.3353 18.1147C10.3353 20.4612 10.3353 22.8389 10.3353 25.1854C10.3353 26.2178 9.62582 26.9687 8.6078 27C7.65148 27 6.69516 27 5.708 27C4.78253 27 3.9496 26.2491 3.9496 25.1854C3.98045 22.4322 3.9496 19.6477 3.9496 16.8946C3.9496 16.3314 3.54857 16.0498 3.11668 16.0498C2.6231 16.0498 2.12951 16.0498 1.66678 16.0498C0.710457 16.0185 -0.029919 15.2051 0.000929961 14.2665C0.031779 13.8285 0.216873 13.4844 0.494514 13.1715C2.22206 11.2317 3.9496 9.292 5.67715 7.35226C7.65148 5.13094 9.62582 2.87833 11.631 0.65701C12.4022 -0.219003 13.667 -0.219003 14.4383 0.65701C15.6414 2.00232 16.8136 3.34762 17.9859 4.66164C17.9859 4.72422 18.0476 4.78679 18.1401 4.88065Z" fill="#BC0063"/>
</svg>
