<svg width="16" height="12" viewBox="0 0 16 12" fill="none" xmlns="http://www.w3.org/2000/svg">
<g clip-path="url(#clip0_35_115)">
<path d="M15.9834 2.07469C15.9834 1.9751 15.9834 1.87552 15.9668 1.77593C15.8008 0.713693 14.971 0 13.8921 0C11.9336 0 9.95851 0 8 0C6.0249 0 4.04979 0 2.07469 0C0.912863 0 0 0.912863 0 2.07469C0 4.6639 0 7.25311 0 9.84232C0 11.0041 0.896266 11.9004 2.05809 11.9004C6.0249 11.9004 9.9751 11.9004 13.9253 11.9004C15.0705 11.9004 15.9834 10.9876 15.9834 9.84232C16 7.25311 16 4.6639 15.9834 2.07469ZM14.3237 2.39004L8 6.24066L1.72614 2.37344C1.60996 2.30705 1.57676 2.14108 1.64315 2.0249C1.70954 1.90871 1.87552 1.87552 1.9917 1.94191L8 5.64315L14.0747 1.94191C14.1909 1.87552 14.3403 1.90871 14.4232 2.0249C14.4896 2.15768 14.4398 2.30705 14.3237 2.39004Z" fill="black"/>
</g>
<defs>
<clipPath id="clip0_35_115">
<rect width="16" height="11.9004" fill="white"/>
</clipPath>
</defs>
</svg>
