<svg width="27" height="33" viewBox="0 0 27 33" fill="none" xmlns="http://www.w3.org/2000/svg">
<g clip-path="url(#clip0_11_14)">
<path d="M26.1431 10.8C25.8844 10.9778 25.6257 11.1395 25.3832 11.3174C24.5587 11.9317 23.8796 12.6593 23.3784 13.5485C22.9904 14.2599 22.7479 15.0198 22.6347 15.812C22.5054 16.8305 22.5539 17.8329 22.8125 18.8192C23.1359 20.0317 23.7664 21.0503 24.6718 21.9234C25.3347 22.5539 26.0622 23.0713 26.903 23.4431C26.9353 23.4593 26.9515 23.4754 27 23.4916C26.9838 23.5563 26.9676 23.6048 26.9515 23.6695C26.2563 25.7228 25.1892 27.582 23.8311 29.2796C23.3784 29.8455 22.9096 30.4114 22.3599 30.8802C21.8102 31.3491 21.1958 31.721 20.4844 31.8988C19.87 32.0605 19.2718 32.0281 18.6736 31.8988C18.0754 31.7695 17.5096 31.5754 16.9599 31.3491C16.3616 31.1066 15.7634 30.9287 15.1329 30.8156C14.4215 30.7024 13.7263 30.7186 13.0149 30.8479C12.3844 30.9611 11.77 31.1551 11.1718 31.3976C10.606 31.624 10.0401 31.818 9.44189 31.9311C8.47183 32.1413 7.56644 31.9635 6.74189 31.4299C6.20836 31.0904 5.73949 30.6701 5.30297 30.2012C4.64009 29.4898 4.05806 28.7138 3.49219 27.9054C2.45746 26.4503 1.69758 24.8659 1.09937 23.1844C0.695182 22.0689 0.404164 20.921 0.210152 19.7407C0.0484758 18.706 -0.0161949 17.6713 0.0161405 16.6365C0.0808111 15.1976 0.355661 13.8072 0.970033 12.5138C1.5844 11.2042 2.44129 10.0886 3.60536 9.21557C4.70476 8.39102 5.93351 7.88982 7.29159 7.69581C8.27782 7.5503 9.23171 7.6473 10.1694 7.95449C10.8 8.1485 11.4143 8.37485 12.0287 8.6012C12.4976 8.76287 12.9503 8.92455 13.4353 9.02156C13.6616 9.07006 13.8718 9.05389 14.082 9.00539C14.7449 8.82754 15.3916 8.6012 16.0383 8.35868C16.7335 8.1 17.4287 7.87365 18.1563 7.71198C18.9808 7.53413 19.8054 7.50179 20.6299 7.61497C21.4221 7.72814 22.1982 7.90599 22.9419 8.21317C24.1868 8.71437 25.2054 9.50659 25.9976 10.5737C26.0622 10.6868 26.0946 10.7353 26.1431 10.8ZM19.7569 0.0485021C19.1587 0.12934 18.5766 0.323352 18.0269 0.565867C15.9575 1.45509 14.567 2.97485 13.8233 5.07665C13.5646 5.83653 13.4515 6.61257 13.5323 7.42096C13.5323 7.46946 13.5485 7.51796 13.5485 7.56647C13.8072 7.56647 14.0497 7.58263 14.2922 7.56647C15.0359 7.51796 15.7311 7.27545 16.3778 6.91976C17.1862 6.46706 17.8652 5.86886 18.4634 5.17365C19.482 3.99341 20.1449 2.63533 20.2419 1.0509C20.2581 0.711376 20.2581 0.355688 20.2096 -0.0161686C20.064 0.0161667 19.9024 0.0323344 19.7569 0.0485021Z" fill="black"/>
</g>
<defs>
<clipPath id="clip0_11_14">
<rect width="27" height="32.0766" fill="white"/>
</clipPath>
</defs>
</svg>
