<svg width="12" height="15" viewBox="0 0 12 15" fill="none" xmlns="http://www.w3.org/2000/svg">
<g clip-path="url(#clip0_30_4)">
<path d="M10.6578 6.82357C10.818 6.82357 10.9583 6.80308 11.0985 6.82357C11.6194 6.88505 11.98 7.29488 11.98 7.82767C11.98 8.60636 11.98 9.40554 11.98 10.1842C11.98 11.4342 11.98 12.7047 11.98 13.9547C11.98 14.426 11.6995 14.8359 11.2588 14.9588C11.1586 14.9793 11.0584 14.9998 10.9583 14.9998C8.97496 14.9998 6.99165 14.9998 5.00835 14.9998C3.66611 14.9998 2.32387 14.9998 0.981636 14.9998C0.520868 14.9998 0.1202 14.7129 0 14.2621C0.0200334 14.1801 0 14.0777 0 13.9752C0 11.926 0 9.87685 0 7.82767C0 7.2539 0.440735 6.80308 1.00167 6.80308C1.0818 6.80308 1.18197 6.80308 1.2621 6.80308C1.3222 6.80308 1.34224 6.78259 1.34224 6.72111C1.34224 6.08587 1.34224 5.47111 1.34224 4.83587C1.3222 2.84816 2.48414 1.06537 4.28714 0.327668C4.92821 0.0612751 5.60935 -0.0206922 6.31052 -0.000200355C8.47412 0.12275 9.93656 1.80308 10.3973 3.15554C10.5977 3.72931 10.6578 4.32357 10.6578 4.91783C10.6578 5.51209 10.6578 6.08586 10.6578 6.68013C10.6578 6.72111 10.6578 6.76209 10.6578 6.82357ZM8.65442 6.80308C8.65442 6.78259 8.65442 6.76209 8.65442 6.7416C8.65442 6.12685 8.65442 5.51209 8.65442 4.89734C8.65442 4.63095 8.65442 4.36455 8.57429 4.11865C8.11352 2.27439 6.03005 1.47521 4.50751 2.4998C3.72621 3.03259 3.32554 3.79078 3.32554 4.7539C3.32554 5.40964 3.32554 6.06537 3.32554 6.7416C3.32554 6.76209 3.32554 6.78259 3.32554 6.82357C5.10851 6.80308 6.87145 6.80308 8.65442 6.80308Z" fill="#A9A9A9"/>
</g>
<defs>
<clipPath id="clip0_30_4">
<rect width="12" height="15" fill="white"/>
</clipPath>
</defs>
</svg>
