<svg width="23" height="27" viewBox="0 0 23 27" fill="none" xmlns="http://www.w3.org/2000/svg">
<path d="M0 13.5C0 9.80023 0 6.09007 0 2.3903C0 0.841801 0.83311 0 2.37436 0C8.42483 0 14.4857 0 20.5362 0C22.0462 0 22.8897 0.841801 22.9001 2.33834C22.9001 9.77945 22.9001 17.2309 22.9001 24.6721C22.9001 26.1478 22.0566 27 20.5882 27C14.4961 27 8.404 27 2.32229 27C0.864352 27 0.0104139 26.1374 0.0104139 24.6617C0 20.9515 0 17.2309 0 13.5ZM2.11402 24.8903C8.35193 24.8903 14.569 24.8903 20.7757 24.8903C20.7757 17.2725 20.7757 9.69631 20.7757 2.12009C14.5378 2.12009 8.34152 2.12009 2.11402 2.12009C2.11402 9.72748 2.11402 17.3037 2.11402 24.8903Z" fill="#CACACA"/>
<path d="M11.3615 7.27481C10.0077 7.27481 8.65387 7.27481 7.30006 7.27481C6.55027 7.27481 6.09205 6.8695 6.10247 6.22516C6.11288 5.59121 6.56068 5.19629 7.27924 5.19629C9.99726 5.19629 12.7257 5.19629 15.4437 5.19629C16.1935 5.19629 16.6621 5.61199 16.6517 6.25634C16.6413 6.87989 16.2039 7.27481 15.4645 7.27481C14.1003 7.27481 12.7361 7.27481 11.3615 7.27481Z" fill="#CACACA"/>
<path d="M8.74761 16.628C7.57084 16.628 6.39407 16.628 5.20689 16.628C4.47792 16.628 4.03012 16.2435 4.01971 15.6095C4.0093 14.9548 4.45709 14.5495 5.20689 14.5391C7.56043 14.5391 9.92438 14.5391 12.2779 14.5391C13.059 14.5391 13.5068 14.9236 13.5276 15.5575C13.538 16.2227 13.0798 16.6176 12.2779 16.6176C11.1116 16.628 9.92438 16.628 8.74761 16.628Z" fill="#CACACA"/>
<path d="M8.7372 13.5103C7.56043 13.5103 6.37325 13.5103 5.19648 13.5103C4.47792 13.5103 4.03012 13.1154 4.01971 12.4814C4.0093 11.8475 4.45709 11.4318 5.16524 11.4214C7.56043 11.4214 9.95562 11.4214 12.3404 11.4214C13.0694 11.4214 13.5172 11.8267 13.5276 12.4503C13.538 13.105 13.0902 13.4999 12.3196 13.4999C11.1324 13.5103 9.93479 13.5103 8.7372 13.5103Z" fill="#CACACA"/>
<path d="M8.78927 19.746C7.59167 19.746 6.39407 19.746 5.19648 19.746C4.47792 19.746 4.03012 19.3511 4.01971 18.7171C4.0093 18.0832 4.45709 17.6675 5.16524 17.6675C7.56043 17.6675 9.95562 17.6675 12.3404 17.6675C13.0694 17.6675 13.5172 18.0624 13.5276 18.6963C13.538 19.3511 13.0798 19.746 12.3196 19.746C11.1532 19.746 9.96603 19.746 8.78927 19.746Z" fill="#CACACA"/>
<path d="M17.0787 13.5105C16.8704 13.5105 16.6621 13.5209 16.4538 13.5105C15.8707 13.4793 15.4541 13.0324 15.4541 12.4712C15.4541 11.9308 15.8602 11.4735 16.4122 11.4423C16.86 11.4112 17.3078 11.4112 17.7556 11.4423C18.3492 11.4839 18.7449 11.9412 18.7345 12.5024C18.7241 13.074 18.3075 13.4793 17.7035 13.5105C17.4952 13.5105 17.2869 13.5105 17.0787 13.5105Z" fill="#CACACA"/>
<path d="M17.0997 16.6283C16.8914 16.6283 16.6831 16.6387 16.4749 16.6283C15.8917 16.5971 15.4647 16.171 15.4543 15.5994C15.4439 15.0278 15.8604 14.5706 16.4436 14.5498C16.8706 14.529 17.308 14.529 17.7349 14.5498C18.3285 14.5809 18.7347 15.0278 18.7347 15.5994C18.7347 16.171 18.3181 16.5867 17.7141 16.6283C17.5162 16.6283 17.308 16.6179 17.0997 16.6283Z" fill="#CACACA"/>
<path d="M17.0996 19.7358C16.8705 19.7358 16.6518 19.7461 16.4227 19.7358C15.8707 19.6942 15.4646 19.2577 15.4646 18.7069C15.4646 18.1561 15.8603 17.6988 16.4123 17.6676C16.8601 17.6364 17.3079 17.6468 17.7557 17.6676C18.3492 17.6988 18.7554 18.1457 18.745 18.7173C18.7346 19.2681 18.3388 19.6838 17.7765 19.7358C17.5474 19.7565 17.3183 19.7358 17.0996 19.7358Z" fill="#CACACA"/>
</svg>
