<svg width="17" height="15" viewBox="0 0 17 15" fill="none" xmlns="http://www.w3.org/2000/svg">
<path d="M8.61838 2.58582C8.83148 2.58582 9.04457 2.58582 9.23398 2.58582C9.25766 2.58582 9.28134 2.58582 9.30501 2.58582C9.96797 2.6127 10.6072 2.74711 11.2228 2.93528C12.4304 3.31162 13.5195 3.98366 14.5139 4.84388C15.4136 5.62345 16.2187 6.53743 16.9526 7.53205C16.9763 7.55893 16.9763 7.55893 17 7.58582C17 7.58582 17 7.58582 17 7.6127L16.9763 7.63958C16.4791 8.3385 15.9109 8.98366 15.2953 9.54818C14.4429 10.3815 13.4958 11.0804 12.454 11.6181C11.4359 12.1288 10.3705 12.4514 9.25766 12.5589C9.16295 12.5589 9.04457 12.5858 8.94986 12.5858C8.73677 12.5858 8.54735 12.5858 8.33426 12.5858C8.31059 12.5858 8.28691 12.5858 8.26323 12.5858C7.74234 12.5589 7.24513 12.4783 6.74791 12.3708C5.65877 12.1019 4.64067 11.6181 3.66992 10.9729C2.53343 10.2202 1.539 9.30625 0.591922 8.28474C0.402507 8.06969 0.213092 7.85463 0 7.63958C0 7.63958 0 7.63958 0 7.6127C0.0236769 7.6127 0.0236769 7.58582 0.0236769 7.58582C0.37883 7.20947 0.710306 6.80625 1.06546 6.45678C2.20195 5.32775 3.45682 4.36001 4.83008 3.66108C5.9429 3.09657 7.07939 2.72022 8.31058 2.63958C8.40529 2.6127 8.52368 2.58582 8.61838 2.58582ZM8.54735 11.7525C8.73677 11.7256 8.87883 11.7256 9.02089 11.7256C9.84958 11.6181 10.5836 11.2417 11.1755 10.6234C12.383 9.36001 12.7145 7.39764 11.9331 5.75786C11.2939 4.41377 10.2758 3.66108 8.92618 3.49979C7.76602 3.36539 6.74791 3.76861 5.91922 4.68259C4.75905 5.91915 4.45125 7.88151 5.20891 9.49442C5.9429 10.946 7.10306 11.6718 8.54735 11.7525ZM6.72423 8.66108C7.29248 9.89764 8.68941 10.3546 9.7312 9.60194C10.5836 8.98366 10.9387 7.82775 10.5599 6.77936C10.1574 5.67721 9.09192 5.05893 8.05014 5.38151C7.12674 5.65033 6.48746 6.59119 6.48746 7.63958C6.51114 7.98904 6.58217 8.3385 6.72423 8.66108Z" fill="#BC0063"/>
<line x1="15" y1="1.00003" x2="2.41421" y2="13.5858" stroke="#BC0063" stroke-width="2" stroke-linecap="round"/>
</svg>
