<svg width="95" height="100" viewBox="0 0 95 100" fill="none" xmlns="http://www.w3.org/2000/svg">
<path d="M47.5 100C48.7 100 49.8 100 51 99.9H44.5C45.4 99.9 46.4 100 47.5 100Z" fill="white"/>
<path d="M95 79.2C93.9 69.6 88.8 62.5 80 58C74.6 55.3 69 53.3 63.2 51.7C62.6 51.5 61.6 51.7 61 52.1C51.9 57.8 42.9 57.8 33.9 52.1C33.3 51.7 32.4 51.5 31.7 51.7C25.8 53.5 20 55.7 14.5 58.6C6.2 63 1 69.6 0 79.1V79.2C11.2 91.2 26.9 99 44.4 99.8H50.9C68.3 99 83.9 91.2 95 79.2Z" fill="white"/>
<path d="M47.4 51.5C61.6 51.5 73.1999 40 73.1999 25.8C73.2999 11.6 61.7 0 47.5 0C33.3 0 21.7 11.5 21.7 25.7C21.7 39.9 33.2 51.5 47.4 51.5Z" fill="white"/>
</svg>
