<svg width="23" height="25" viewBox="0 0 23 25" fill="none" xmlns="http://www.w3.org/2000/svg">
<path d="M18.121 8.0069C18.121 6.21864 17.4106 4.50362 16.1461 3.23912C14.8816 1.97463 13.1666 1.26425 11.3784 1.26425C9.59009 1.26425 7.87507 1.97463 6.61058 3.23912C5.34608 4.50362 4.6357 6.21864 4.6357 8.0069C4.6357 15.8733 1.26437 18.1209 1.26437 18.1209H21.4923C21.4923 18.1209 18.121 15.8733 18.121 8.0069Z" stroke="#A1A1A1" stroke-width="2.5" stroke-linecap="round" stroke-linejoin="round"/>
<path d="M13.3225 22.6162C13.1249 22.9568 12.8413 23.2395 12.5001 23.436C12.1589 23.6326 11.7721 23.736 11.3783 23.736C10.9846 23.736 10.5977 23.6326 10.2565 23.436C9.91535 23.2395 9.63177 22.9568 9.4342 22.6162" stroke="#A1A1A1" stroke-width="2.5" stroke-linecap="round" stroke-linejoin="round"/>
</svg>
