<svg width="50" height="27" viewBox="0 0 50 27" fill="none" xmlns="http://www.w3.org/2000/svg">
<path d="M45.9763 27H3.6283C1.62449 27 0 25.3736 0 23.3675V3.63247C0 1.62636 1.62449 0 3.6283 0H45.9763C47.9802 0 49.6047 1.62636 49.6047 3.63247V23.3675C49.6047 25.3736 47.9802 27 45.9763 27Z" fill="black"/>
<path d="M24.755 22.1127C24.3715 22.3851 24.0005 22.6865 23.5964 22.9259C21.5843 24.1147 19.3991 24.6183 17.082 24.4119C14.0391 24.1394 11.5158 22.8185 9.54499 20.4781C8.19262 18.8724 7.37213 17.0066 7.12474 14.9262C6.69594 11.2937 7.7968 8.16483 10.4108 5.60146C12.0518 3.99574 14.0433 3.02983 16.3151 2.68722C19.3373 2.23316 22.0915 2.91838 24.5695 4.71398C24.6478 4.76764 24.7138 4.83781 24.7838 4.90386C24.2149 5.45698 23.5923 5.96883 23.0851 6.57149C22.1739 7.6571 21.5184 8.89545 21.0978 10.2576C20.8504 11.0584 20.6773 11.8799 20.6319 12.7137C20.566 13.9768 20.6237 15.2399 21.0319 16.4535C21.2627 17.1346 21.4936 17.8198 21.8029 18.4637C22.3141 19.5287 23.0357 20.4533 23.8685 21.2913C24.1489 21.5761 24.4581 21.8361 24.755 22.1127Z" fill="#E9011B"/>
<path d="M24.825 4.88708C25.1466 4.65592 25.4558 4.40413 25.7898 4.19361C26.9401 3.46711 28.1894 2.97591 29.5253 2.73649C32.5475 2.19988 35.3429 2.77777 37.8786 4.52383C39.6062 5.71264 40.8637 7.29772 41.6925 9.22954C42.3934 10.86 42.6655 12.5648 42.5377 14.3274C42.4181 15.9785 41.9398 17.5306 41.0987 18.967C40.0102 20.8328 38.5053 22.261 36.5922 23.2476C35.4625 23.8296 34.2586 24.197 32.9928 24.3538C31.7971 24.5024 30.6055 24.4694 29.4263 24.2341C27.8513 23.9204 26.4082 23.2847 25.1053 22.3395C24.9981 22.261 24.8951 22.1826 24.792 22.1042C24.9817 21.9473 25.1754 21.8028 25.3569 21.6336C26.334 20.7296 27.1669 19.7059 27.773 18.513C28.2884 17.5017 28.6594 16.4367 28.8367 15.3098C28.9728 14.4347 29.0264 13.5596 28.9604 12.6721C28.8903 11.7351 28.7172 10.8229 28.3914 9.9519C28.1358 9.27081 27.8348 8.59385 27.472 7.9623C27.1339 7.37202 26.6969 6.83541 26.2763 6.29879C26.0413 6.00159 25.7485 5.74567 25.4723 5.47736C25.262 5.27922 25.0435 5.08522 24.825 4.88708Z" fill="#F69E1C"/>
<path d="M24.8249 4.88721C25.0393 5.08534 25.262 5.27935 25.4681 5.48161C25.7444 5.74992 26.0371 6.00172 26.2721 6.30305C26.6968 6.83966 27.1297 7.37628 27.4678 7.96655C27.8307 8.59811 28.1317 9.27507 28.3873 9.95616C28.713 10.8271 28.8862 11.7435 28.9563 12.6764C29.0222 13.5639 28.9686 14.439 28.8326 15.3141C28.6594 16.4409 28.2842 17.5059 27.7688 18.5172C27.1627 19.7102 26.334 20.7297 25.3527 21.6379C25.1713 21.803 24.9775 21.9516 24.7878 22.1084L24.7672 22.1126H24.7466C24.4498 21.8401 24.1405 21.5759 23.856 21.2911C23.0232 20.4573 22.3016 19.5285 21.7904 18.4636C21.4811 17.8196 21.2502 17.1303 21.0194 16.4533C20.6112 15.2398 20.5534 13.9766 20.6194 12.7135C20.6648 11.8797 20.8379 11.0624 21.0853 10.2575C21.5059 8.89531 22.1614 7.65697 23.0726 6.57135C23.5798 5.96457 24.2024 5.45684 24.7713 4.90372C24.8002 4.89546 24.8126 4.89133 24.8249 4.88721Z" fill="#FE5F01"/>
</svg>
