<svg width="20" height="17" viewBox="0 0 20 17" fill="none" xmlns="http://www.w3.org/2000/svg">
<path d="M6.99441 2.83637C4.92354 2.83637 2.86073 2.83637 0.789858 2.83637C0.693164 2.83637 0.604527 2.83637 0.507833 2.83637C0.201634 2.82025 0.000187489 2.65104 0.000187489 2.33678C0.000187489 2.01447 0.201634 1.85331 0.515891 1.83719C0.677048 1.82913 0.838205 1.82913 0.999362 1.82913C5.06858 1.82913 9.1378 1.82913 13.199 1.83719C13.5132 1.83719 13.6905 1.78885 13.8114 1.44236C14.1417 0.555993 15.012 0 15.9548 0C16.9136 0 17.7758 0.555993 18.1223 1.45847C18.2351 1.74856 18.3641 1.86137 18.6703 1.82913C18.9523 1.80496 19.2343 1.81302 19.5163 1.83719C19.8064 1.86137 19.9998 2.02252 19.9998 2.32872C19.9998 2.65104 19.8064 2.82025 19.4922 2.83637C19.1698 2.85248 18.8475 2.82025 18.5252 2.85248C18.4043 2.8686 18.2351 2.97335 18.1948 3.0781C17.7678 4.08534 16.9781 4.6655 15.987 4.67356C14.9959 4.68968 14.1659 4.10145 13.763 3.06199C13.6663 2.82025 13.5213 2.82831 13.3279 2.82831C11.2167 2.83637 9.10557 2.83637 6.99441 2.83637ZM15.9386 3.65827C16.68 3.66633 17.2762 3.08616 17.2762 2.34484C17.2843 1.61157 16.688 1.00723 15.9548 1.00723C15.2457 1.00723 14.6494 1.5874 14.6333 2.30455C14.6252 3.03781 15.2054 3.65021 15.9386 3.65827Z" fill="#BC0063"/>
<path d="M14.0613 13.9562C15.7131 13.9562 17.365 13.9562 19.0168 13.9562C19.1377 13.9562 19.2586 13.9562 19.3794 13.9562C19.7179 13.9482 19.9677 14.069 19.9918 14.4397C20.016 14.762 19.7904 14.9635 19.3794 14.9635C17.7679 14.9715 16.1563 14.9796 14.5447 14.9635C14.1982 14.9635 14.021 15.036 13.8679 15.3905C13.473 16.3172 12.7237 16.7845 11.7164 16.7926C10.7737 16.7926 9.91952 16.2285 9.5972 15.3422C9.47633 15.0199 9.31518 14.9715 9.00898 14.9715C6.30959 14.9796 3.61021 14.9796 0.910827 14.9796C0.74967 14.9796 0.588512 14.9876 0.427355 14.9635C0.153388 14.9151 -0.00776932 14.7459 0.000288547 14.4639C0.00834641 14.1818 0.169504 14.0207 0.443471 13.9723C0.564339 13.9562 0.685207 13.9643 0.806075 13.9643C3.56992 13.9643 6.33377 13.9643 9.10567 13.9643C9.31518 13.9643 9.46022 13.9482 9.55691 13.6903C9.92757 12.7073 10.7817 12.119 11.7728 12.119C12.7559 12.1271 13.5858 12.7314 13.9646 13.7225C13.9887 13.7951 14.021 13.8676 14.0613 13.9562ZM11.7325 13.1424C10.9993 13.1504 10.403 13.7548 10.411 14.488C10.4272 15.1971 11.0234 15.7854 11.7325 15.7934C12.4577 15.8015 13.0621 15.1971 13.0621 14.4639C13.0621 13.7225 12.4658 13.1343 11.7325 13.1424Z" fill="#BC0063"/>
<path d="M6.56734 8.89582C6.31755 9.74189 5.80991 10.3382 4.97995 10.6202C3.81156 11.015 2.54647 10.4107 2.09523 9.22619C1.99854 8.96834 1.88573 8.86359 1.6037 8.88776C1.2411 8.91193 0.878494 8.90387 0.515891 8.88776C0.201634 8.8797 0.000187489 8.71049 0.000187489 8.38817C0.000187489 8.06586 0.193576 7.89664 0.507833 7.88858C0.89461 7.88053 1.28945 7.87247 1.67622 7.88858C1.87767 7.89664 1.97436 7.83218 2.05494 7.63073C2.44172 6.63156 3.26362 6.05139 4.2628 6.05139C5.26197 6.05139 6.07582 6.6235 6.46259 7.63879C6.55929 7.9047 6.7285 7.88858 6.92995 7.88858C11.0153 7.88858 15.0926 7.88858 19.1779 7.88858C19.7742 7.88858 20.0079 8.04168 19.9998 8.41234C19.9837 8.76689 19.7661 8.89582 19.186 8.89582C15.1167 8.89582 11.0475 8.89582 6.9783 8.89582C6.83325 8.89582 6.70433 8.89582 6.56734 8.89582ZM4.25474 7.07474C3.52147 7.07474 2.92519 7.67908 2.93325 8.41234C2.94131 9.12949 3.52953 9.70966 4.24668 9.71772C4.988 9.72578 5.57623 9.14561 5.58429 8.40429C5.58429 7.65491 4.99606 7.07474 4.25474 7.07474Z" fill="#BC0063"/>
</svg>
