<svg width="15" height="15" viewBox="0 0 15 15" fill="none" xmlns="http://www.w3.org/2000/svg">
<path d="M7.47864 2.11729C6.09958 2.11729 4.72053 2.11729 3.34147 2.11729C2.57769 2.11729 2.11093 1.70442 2.12154 1.04806C2.13215 0.402285 2.5883 0 3.32026 0C6.08898 0 8.8683 0 11.637 0C12.4008 0 12.8782 0.423458 12.8676 1.07982C12.857 1.71501 12.4114 2.11729 11.6582 2.11729C10.2686 2.11729 8.87891 2.11729 7.47864 2.11729Z" fill="#CACACA"/>
<path d="M4.81627 11.6449C3.61755 11.6449 2.41883 11.6449 1.20951 11.6449C0.466938 11.6449 0.0107892 11.2532 0.000181054 10.6074C-0.0104271 9.94049 0.445722 9.52762 1.20951 9.51704C3.60694 9.51704 6.01498 9.51704 8.41242 9.51704C9.20803 9.51704 9.66418 9.90873 9.68539 10.5545C9.696 11.232 9.22924 11.6343 8.41242 11.6343C7.22431 11.6449 6.01498 11.6449 4.81627 11.6449Z" fill="#CACACA"/>
<path d="M4.80566 8.46958C3.60694 8.46958 2.39762 8.46958 1.1989 8.46958C0.466939 8.46958 0.0107892 8.0673 0.000181117 7.42152C-0.010427 6.77575 0.445722 6.35229 1.16707 6.34171C3.60694 6.34171 6.04681 6.34171 8.47607 6.34171C9.21864 6.34171 9.67478 6.75458 9.68539 7.38977C9.696 8.05671 9.23985 8.459 8.45485 8.459C7.24553 8.46958 6.02559 8.46958 4.80566 8.46958Z" fill="#CACACA"/>
<path d="M4.8587 14.8216C3.63877 14.8216 2.41883 14.8216 1.1989 14.8216C0.466939 14.8216 0.0107892 14.4193 0.000181117 13.7735C-0.010427 13.1278 0.445722 12.7043 1.16707 12.7043C3.60694 12.7043 6.04681 12.7043 8.47607 12.7043C9.21864 12.7043 9.67478 13.1066 9.68539 13.7524C9.696 14.4193 9.22924 14.8216 8.45485 14.8216C7.26674 14.8216 6.05742 14.8216 4.8587 14.8216Z" fill="#CACACA"/>
<path d="M13.3027 8.46925C13.0906 8.46925 12.8784 8.47983 12.6662 8.46925C12.0722 8.43749 11.6478 7.98227 11.6478 7.4106C11.6478 6.8601 12.0616 6.3943 12.6238 6.36254C13.0799 6.33078 13.5361 6.33078 13.9922 6.36254C14.5969 6.40489 15 6.87069 14.9894 7.44236C14.9788 8.02461 14.5545 8.43749 13.9392 8.46925C13.727 8.46925 13.5149 8.46925 13.3027 8.46925Z" fill="#CACACA"/>
<path d="M13.3241 11.6452C13.112 11.6452 12.8998 11.6558 12.6876 11.6452C12.0936 11.6135 11.6587 11.1794 11.648 10.5972C11.6374 10.0149 12.0618 9.54911 12.6558 9.52794C13.0907 9.50677 13.5363 9.50677 13.9712 9.52794C14.5759 9.5597 14.9896 10.0149 14.9896 10.5972C14.9896 11.1794 14.5653 11.6029 13.95 11.6452C13.7485 11.6452 13.5363 11.6346 13.3241 11.6452Z" fill="#CACACA"/>
<path d="M13.3238 14.8102C13.0904 14.8102 12.8676 14.8207 12.6342 14.8102C12.072 14.7678 11.6583 14.3232 11.6583 13.7621C11.6583 13.201 12.0614 12.7352 12.6236 12.7035C13.0798 12.6717 13.5359 12.6823 13.9921 12.7035C14.5967 12.7352 15.0105 13.1904 14.9999 13.7727C14.9892 14.3338 14.5861 14.7572 14.0133 14.8102C13.7799 14.8313 13.5465 14.8102 13.3238 14.8102Z" fill="#CACACA"/>
</svg>
