<svg width="19" height="27" viewBox="0 0 19 27" fill="none" xmlns="http://www.w3.org/2000/svg">
<path d="M9.70521 21.068L9.065 20.5517L8.43485 21.0802C8.19406 21.2822 7.95614 21.4824 7.72047 21.6807C6.10362 23.0411 4.59276 24.3124 2.99172 25.4486L2.99168 25.4486L2.98229 25.4554C2.73469 25.6355 2.39255 25.8128 2.06657 25.9157C1.90584 25.9665 1.77251 25.9916 1.67396 25.9982C1.63202 26.001 1.60374 26 1.587 25.9986C1.57326 25.9872 1.55043 25.9664 1.51954 25.9319C1.44729 25.8512 1.36378 25.7316 1.28192 25.5792C1.12019 25.278 1.02389 24.9612 1 24.7624V24.7245V24.6809V24.6373V24.5937V24.55V24.5064V24.4628V24.4192V24.3756V24.332V24.2884V24.2447V24.2011V24.1575V24.1139V24.0703V24.0267V23.9831V23.9394V23.8958V23.8522V23.8086V23.765V23.7214V23.6778V23.6341V23.5905V23.5469V23.5033V23.4597V23.4161V23.3725V23.3288V23.2852V23.2416V23.198V23.1544V23.1108V23.0672V23.0235V22.9799V22.9363V22.8927V22.8491V22.8055V22.7619V22.7182V22.6746V22.631V22.5874V22.5438V22.5002V22.4566V22.4129V22.3693V22.3257V22.2821V22.2385V22.1949V22.1512V22.1076V22.064V22.0204V21.9768V21.9332V21.8896V21.8459V21.8023V21.7587V21.7151V21.6715V21.6279V21.5843V21.5406V21.497V21.4534V21.4098V21.3662V21.3226V21.279V21.2353V21.1917V21.1481V21.1045V21.0609V21.0173V20.9737V20.93V20.8864V20.8428V20.7992V20.7556V20.712V20.6684V20.6247V20.5811V20.5375V20.4939V20.4503V20.4067V20.3631V20.3194V20.2758V20.2322V20.1886V20.145V20.1014V20.0578V20.0141V19.9705V19.9269V19.8833V19.8397V19.7961V19.7525V19.7088V19.6652V19.6216V19.578V19.5344V19.4908V19.4472V19.4035V19.3599V19.3163V19.2727V19.2291V19.1855V19.1419V19.0982V19.0546V19.011V18.9674V18.9238V18.8802V18.8366V18.7929V18.7493V18.7057V18.6621V18.6185V18.5749V18.5313V18.4876V18.444V18.4004V18.3568V18.3132V18.2696V18.226V18.1823V18.1387V18.0951V18.0515V18.0079V17.9643V17.9207V17.877V17.8334V17.7898V17.7462V17.7026V17.659V17.6154V17.5717V17.5281V17.4845V17.4409V17.3973V17.3537V17.3101V17.2664V17.2228V17.1792V17.1356V17.092V17.0484V17.0048V16.9611V16.9175V16.8739V16.8303V16.7867V16.7431V16.6995V16.6558V16.6122V16.5686V16.525V16.4814V16.4378V16.3942V16.3505V16.3069V16.2633V16.2197V16.1761V16.1325V16.0889V16.0452V16.0016V15.958V15.9144V15.8708V15.8272V15.7836V15.7399V15.6963V15.6527V15.6091V15.5655V15.5219V15.4783V15.4346V15.391V15.3474V15.3038V15.2602V15.2166V15.173V15.1293V15.0857V15.0421V14.9985V14.9549V14.9113V14.8677V14.824V14.7804V14.7368V14.6932V14.6496V14.606V14.5624V14.5187V14.4751V14.4315V14.3879V14.3443V14.3007V14.2571V14.2134V14.1698V14.1262V14.0826V14.039V13.9954V13.9517V13.9081V13.8645V13.8209V13.7773V13.7337V13.6901V13.6464V13.6028V13.5592V13.5156V13.472V13.4284V13.3848V13.3411V13.2975V13.2539V13.2103V13.1667V13.1231V13.0795V13.0358V12.9922V12.9486V12.905V12.8614V12.8178V12.7742V12.7305V12.6869V12.6433V12.5997V12.5561V12.5125V12.4689V12.4252V12.3816V12.338V12.2944V12.2508V12.2072V12.1636V12.1199V12.0763V12.0327V11.9891V11.9455V11.9019V11.8583V11.8146V11.771V11.7274V11.6838V11.6402V11.5966V11.553V11.5093V11.4657V11.4221V11.3785V11.3349V11.2913V11.2477V11.204V11.1604V11.1168V11.0732V11.0296V10.986V10.9424V10.8987V10.8551V10.8115V10.7679V10.7243V10.6807V10.6371V10.5934V10.5498V10.5062V10.4626V10.419V10.3754V10.3318V10.2881V10.2445V10.2009V10.1573V10.1137V10.0701V10.0265V9.98284V9.93923V9.89561V9.852V9.80838V9.76477V9.72116V9.67754V9.63393V9.59031V9.5467V9.50309V9.45947V9.41586V9.37224V9.32863V9.28501V9.2414V9.19778V9.15417V9.11056V9.06694V9.02333V8.97971V8.9361V8.89248V8.84887V8.80525V8.76164V8.71803V8.67441V8.6308V8.58718V8.54357V8.49995V8.45634V8.41273V8.36911V8.3255V8.28188V8.23827V8.19465V8.15104V8.10742V8.06381V8.0202V7.97658V7.93297V7.88935V7.84574V7.80212V7.75851V7.7149V7.67128V7.62767V7.58405V7.54044V7.49682V7.45321V7.4096V7.36598V7.32237V7.27875V7.23514V7.19152V7.14791V7.10429V7.06068V7.01707V6.97345V6.92984V6.88622V6.84261V6.79899V6.75538V6.71177V6.66815V6.62454V6.58092V6.53731V6.49369V6.45008V6.40647V6.36285V6.31924V6.27562V6.23201V6.18839V6.14478V6.10116V6.05755V6.01394V5.97032V5.92671V5.88309V5.83948V5.79586V5.75225V5.70864V5.66502V5.62141V5.57779V5.53418V5.49056V5.44695V5.40333V5.35972V5.31611V5.27249V5.22888V5.18526V5.14165V5.09803V5.05442V5.01081V4.96719V4.92358V4.87996V4.83635V4.79273V4.74912V4.7055V4.66189V4.61828V4.57466V4.53105V4.48743V4.44382V4.4002V4.35659V4.31298V4.26936V4.22575V4.18213V4.13852V4.0949V4.05129V4.00768V3.96406V3.92045V3.87683V3.83322V3.7896V3.74599V3.70237V3.65876V3.61515V3.57153V3.52792V3.4843V3.44069V3.39707V3.35346V3.30985V3.26623V3.22262V3.179V3.13539V3.09177V3.04816V3.00454V2.96093V2.91732V2.8737V2.83009V2.78647V2.74286V2.69924V2.65563V2.61202V2.5684V2.52479V2.48117C1 1.72286 1.20197 1.44057 1.36147 1.30937C1.56345 1.14323 1.95991 1 2.72324 1C4.12499 1 5.53187 1.00669 6.94152 1.0134C9.76907 1.02685 12.6078 1.04035 15.4385 1C16.3484 1.00111 16.6986 1.22207 16.861 1.41008C17.0528 1.63218 17.2149 2.06958 17.2154 2.96124C17.1852 6.5345 17.1852 10.1071 17.1852 13.6747V13.6767C17.1852 17.2479 17.1852 20.8141 17.155 24.3796H17.1549V24.3881C17.1549 24.6526 17.0716 25.0631 16.9105 25.439C16.8324 25.6212 16.7488 25.7648 16.6731 25.8632C16.638 25.9088 16.6115 25.9358 16.5956 25.9505C16.583 25.9501 16.5665 25.9492 16.5457 25.9471C16.4383 25.9363 16.2835 25.9003 16.0876 25.8299C15.6996 25.6904 15.2773 25.4626 14.9667 25.2566C13.7284 24.389 12.5927 23.4479 11.3665 22.4318C10.835 21.9913 10.2865 21.5368 9.70521 21.068Z" stroke="#CACACA" stroke-width="2"/>
<line x1="4.5" y1="4.5" x2="13.5" y2="4.5" stroke="#CACACA" stroke-linecap="round"/>
</svg>
