<svg width="21" height="32" viewBox="0 0 21 32" fill="none" xmlns="http://www.w3.org/2000/svg">
<path d="M11.0929 24.4076L10.4527 23.8913L9.8225 24.4199C9.54523 24.6524 9.27111 24.8831 8.99947 25.1116C7.13592 26.6797 5.38887 28.1497 3.53753 29.4636L3.53749 29.4635L3.52811 29.4703C3.22962 29.6874 2.82041 29.8994 2.42852 30.0232C2.23483 30.0843 2.06883 30.1164 1.94007 30.1251C1.83458 30.1321 1.78253 30.1216 1.76925 30.1185C1.75974 30.1123 1.7134 30.0824 1.63793 29.998C1.54471 29.8939 1.44184 29.7454 1.3432 29.5618C1.14774 29.1978 1.02858 28.8093 1 28.5566V28.5544V28.5041V28.4538V28.4035V28.3532V28.303V28.2527V28.2024V28.1521V28.1018V28.0516V28.0013V27.951V27.9007V27.8504V27.8001V27.7499V27.6996V27.6493V27.599V27.5487V27.4985V27.4482V27.3979V27.3476V27.2973V27.247V27.1968V27.1465V27.0962V27.0459V26.9956V26.9454V26.8951V26.8448V26.7945V26.7442V26.694V26.6437V26.5934V26.5431V26.4928V26.4425V26.3923V26.342V26.2917V26.2414V26.1911V26.1409V26.0906V26.0403V25.99V25.9397V25.8894V25.8392V25.7889V25.7386V25.6883V25.638V25.5878V25.5375V25.4872V25.4369V25.3866V25.3363V25.2861V25.2358V25.1855V25.1352V25.0849V25.0347V24.9844V24.9341V24.8838V24.8335V24.7832V24.733V24.6827V24.6324V24.5821V24.5318V24.4816V24.4313V24.381V24.3307V24.2804V24.2302V24.1799V24.1296V24.0793V24.029V23.9787V23.9285V23.8782V23.8279V23.7776V23.7273V23.6771V23.6268V23.5765V23.5262V23.4759V23.4256V23.3754V23.3251V23.2748V23.2245V23.1742V23.124V23.0737V23.0234V22.9731V22.9228V22.8725V22.8223V22.772V22.7217V22.6714V22.6211V22.5709V22.5206V22.4703V22.42V22.3697V22.3195V22.2692V22.2189V22.1686V22.1183V22.068V22.0178V21.9675V21.9172V21.8669V21.8166V21.7664V21.7161V21.6658V21.6155V21.5652V21.5149V21.4647V21.4144V21.3641V21.3138V21.2635V21.2133V21.163V21.1127V21.0624V21.0121V20.9618V20.9116V20.8613V20.811V20.7607V20.7104V20.6602V20.6099V20.5596V20.5093V20.459V20.4087V20.3585V20.3082V20.2579V20.2076V20.1573V20.1071V20.0568V20.0065V19.9562V19.9059V19.8557V19.8054V19.7551V19.7048V19.6545V19.6042V19.554V19.5037V19.4534V19.4031V19.3528V19.3026V19.2523V19.202V19.1517V19.1014V19.0511V19.0009V18.9506V18.9003V18.85V18.7997V18.7495V18.6992V18.6489V18.5986V18.5483V18.498V18.4478V18.3975V18.3472V18.2969V18.2466V18.1964V18.1461V18.0958V18.0455V17.9952V17.945V17.8947V17.8444V17.7941V17.7438V17.6935V17.6433V17.593V17.5427V17.4924V17.4421V17.3919V17.3416V17.2913V17.241V17.1907V17.1404V17.0902V17.0399V16.9896V16.9393V16.889V16.8388V16.7885V16.7382V16.6879V16.6376V16.5873V16.5371V16.4868V16.4365V16.3862V16.3359V16.2857V16.2354V16.1851V16.1348V16.0845V16.0342V15.984V15.9337V15.8834V15.8331V15.7828V15.7326V15.6823V15.632V15.5817V15.5314V15.4812V15.4309V15.3806V15.3303V15.28V15.2297V15.1795V15.1292V15.0789V15.0286V14.9783V14.9281V14.8778V14.8275V14.7772V14.7269V14.6766V14.6264V14.5761V14.5258V14.4755V14.4252V14.375V14.3247V14.2744V14.2241V14.1738V14.1235V14.0733V14.023V13.9727V13.9224V13.7213V13.5202V13.319V13.2185V13.1179V12.9168V12.7157V12.5145V12.3134V12.1123V11.9112V11.71V11.6095V11.5089V11.3078V11.1067V11.0061V10.9055V10.7044V10.5033V10.3021V10.101V9.89989V9.69876V9.49764V9.29651V9.09539V8.89426V8.69313V8.59257V8.49201V8.29088V8.08975V7.98919V7.88863V7.6875V7.48637V7.28525V7.08412V6.88299V6.68187V6.48074V6.27962V6.17905V6.12877V6.07849V5.97793V5.87736V5.67624V5.57567V5.52539V5.47511V5.27398V5.17342V5.07286V4.87173V4.6706V4.46948V4.26835V4.06722V3.96666V3.8661V3.66497V3.46384V3.26272V3.06159V2.96103V2.91075V2.86047C1 1.95876 1.24129 1.58165 1.47248 1.39148C1.74616 1.16635 2.2467 1 3.13953 1C4.75714 1 6.37988 1.00772 8.00539 1.01545C11.2647 1.03096 14.5351 1.04652 17.7976 1C18.8695 1.00111 19.326 1.26148 19.5542 1.52571C19.8119 1.82408 19.9995 2.37476 20 3.41452C19.9651 7.5336 19.9651 11.652 19.9651 15.7654V15.7674C19.9651 19.8844 19.9651 23.9965 19.9303 28.1078H19.9302V28.1163C19.9302 28.4455 19.8284 28.9393 19.6361 29.3881C19.5424 29.6066 19.44 29.7841 19.3431 29.9101C19.255 30.0246 19.1991 30.0608 19.191 30.0661C19.1897 30.0669 19.1896 30.0669 19.1906 30.0665L19.1863 30.0685C19.1709 30.0702 19.1313 30.073 19.0597 30.0657C18.9193 30.0516 18.7281 30.006 18.4952 29.9223C18.0332 29.7563 17.5346 29.4868 17.1685 29.2438C15.735 28.2396 14.4179 27.1481 13.0013 25.9743C12.3895 25.4673 11.7592 24.945 11.0929 24.4076Z" fill="#BC0063" stroke="#BC0063" stroke-width="2"/>
<line x1="5.36145" y1="6.0144" x2="15.3901" y2="6.0144" stroke="white" stroke-width="1.5" stroke-linecap="round"/>
</svg>
