<svg width="11" height="14" viewBox="0 0 11 14" fill="none" xmlns="http://www.w3.org/2000/svg">
<g clip-path="url(#clip0_30_59)">
<path d="M9.76962 6.36885C9.91653 6.36885 10.0451 6.34972 10.1736 6.36885C10.6511 6.42623 10.9816 6.80874 10.9816 7.30601C10.9816 8.03278 10.9816 8.77869 10.9816 9.50546C10.9816 10.6721 10.9816 11.8579 10.9816 13.0246C10.9816 13.4645 10.7245 13.847 10.3205 13.9617C10.2287 13.9809 10.1369 14 10.0451 14C8.22705 14 6.40901 14 4.59098 14C3.3606 14 2.13022 14 0.899833 14C0.477462 14 0.110184 13.7322 0 13.3115C0.0183639 13.235 0 13.1393 0 13.0437C0 11.1311 0 9.21858 0 7.30601C0 6.77049 0.404007 6.34972 0.918197 6.34972C0.991653 6.34972 1.08347 6.34972 1.15693 6.34972C1.21202 6.34972 1.23038 6.3306 1.23038 6.27322C1.23038 5.68032 1.23038 5.10655 1.23038 4.51366C1.21202 2.65847 2.27713 0.994532 3.92988 0.306008C4.51753 0.0573737 5.1419 -0.0191291 5.78464 -3.38419e-06C7.76795 0.114751 9.10851 1.68306 9.53088 2.94535C9.71452 3.48087 9.76962 4.03552 9.76962 4.59016C9.76962 5.14481 9.76962 5.68032 9.76962 6.23497C9.76962 6.27322 9.76962 6.31147 9.76962 6.36885ZM7.93322 6.34972C7.93322 6.3306 7.93322 6.31147 7.93322 6.29235C7.93322 5.71858 7.93322 5.14481 7.93322 4.57103C7.93322 4.3224 7.93322 4.07377 7.85977 3.84426C7.4374 2.12295 5.52755 1.37705 4.13189 2.33333C3.41569 2.8306 3.04841 3.53825 3.04841 4.43716C3.04841 5.04918 3.04841 5.6612 3.04841 6.29235C3.04841 6.31147 3.04841 6.3306 3.04841 6.36885C4.6828 6.34972 6.29883 6.34972 7.93322 6.34972Z" fill="#BC0063"/>
</g>
<defs>
<clipPath id="clip0_30_59">
<rect width="11" height="14" fill="white"/>
</clipPath>
</defs>
</svg>
