<svg width="23" height="27" viewBox="0 0 23 27" fill="none" xmlns="http://www.w3.org/2000/svg">
<path d="M0 13.5C0 9.80023 0 6.09007 0 2.3903C0 0.841801 0.83311 0 2.37436 0C8.42483 0 14.4857 0 20.5362 0C22.0462 0 22.8897 0.841801 22.9001 2.33834C22.9001 9.77945 22.9001 17.2309 22.9001 24.6721C22.9001 26.1478 22.0566 27 20.5882 27C14.4961 27 8.404 27 2.32229 27C0.864352 27 0.0104139 26.1374 0.0104139 24.6617C0 20.9515 0 17.2309 0 13.5ZM2.11402 24.8903C8.35193 24.8903 14.569 24.8903 20.7757 24.8903C20.7757 17.2725 20.7757 9.69631 20.7757 2.12009C14.5378 2.12009 8.34152 2.12009 2.11402 2.12009C2.11402 9.72748 2.11402 17.3037 2.11402 24.8903Z" fill="#CACACA"/>
</svg>
