<svg width="35" height="41" viewBox="0 0 35 41" fill="none" xmlns="http://www.w3.org/2000/svg">
<path d="M0.683573 36.1273C0.196345 36.0312 -0.0575633 35.6744 0.0110604 35.1528C0.120858 34.3156 0.244381 33.4784 0.367904 32.6412C0.724747 30.0952 1.08159 27.5562 1.43843 25.0102C1.82273 22.3202 2.20016 19.6301 2.57759 16.9401C2.93443 14.4216 3.28441 11.8962 3.63439 9.37773C4.01183 6.68768 4.38926 3.99763 4.77355 1.30758C4.79414 1.14974 4.80786 0.99191 4.83531 0.834075C4.93825 0.223324 5.18529 0.0105901 5.8029 0.0105901C8.76059 0.0105901 11.7251 0.0105901 14.6828 0.0105901C16.467 0.0105901 18.2513 -0.0237218 20.0355 0.0311772C25.1342 0.175287 29.6565 3.86038 30.8849 8.81502C31.2211 10.1738 31.2829 11.5462 31.2006 12.9324C31.1594 13.1315 31.1182 13.3305 31.0908 13.5295C30.5967 16.6107 29.0869 19.0811 26.6371 20.9889C24.5235 22.629 22.101 23.3976 19.4384 23.4182C17.0847 23.4387 14.7309 23.425 12.3771 23.425C12.2398 23.425 12.1094 23.425 11.9379 23.425C11.3408 27.6934 10.7438 31.9275 10.1399 36.2028C9.57035 36.2028 9.03508 36.2028 8.49982 36.2028V36.189C8.38316 36.1479 8.27336 36.0724 8.1567 36.0724C5.78232 36.0655 3.40107 36.0655 1.02669 36.0724C0.916894 36.0518 0.800234 36.0998 0.683573 36.1273Z" fill="#253B80"/>
<path d="M8.50682 36.1889C9.04208 36.1889 9.57735 36.1889 10.1469 36.1889C10.7508 31.9137 11.341 27.6727 11.9449 23.4112C12.1164 23.4112 12.2537 23.4112 12.3841 23.4112C14.7379 23.4112 17.0916 23.4249 19.4454 23.4043C22.108 23.3837 24.5305 22.6151 26.6441 20.975C29.0939 19.0742 30.6037 16.5968 31.0978 13.5156C31.1321 13.3166 31.1732 13.1176 31.2076 12.9186C33.1908 14.4421 34.4191 16.4321 34.8515 18.882C35.7848 24.166 32.2163 29.0383 26.9666 30.054C26.3078 30.1775 25.6284 30.2187 24.9559 30.2255C22.9796 30.2461 21.0032 30.2324 19.0268 30.2324C18.9033 30.2324 18.7798 30.2324 18.622 30.2324C18.4984 31.0696 18.3749 31.8931 18.2583 32.7097C17.9494 34.8576 17.6406 37.0055 17.3387 39.1466C17.3044 39.3937 17.2632 39.6407 17.2289 39.8946C17.1603 40.3818 16.8652 40.6632 16.3848 40.6632C13.8252 40.6701 11.2655 40.6701 8.70583 40.6632C8.12939 40.6632 7.7794 40.224 7.88234 39.6613C8.08821 38.5015 8.29408 37.3418 8.50682 36.1889Z" fill="#179AD6"/>
<path d="M0.683589 36.1273C0.800249 36.0998 0.91691 36.0518 1.03357 36.0518C3.40795 36.0449 5.7892 36.0449 8.16358 36.0518C8.28024 36.0518 8.39004 36.1273 8.5067 36.1684C6.05683 36.1684 3.60696 36.1616 1.15709 36.1616C0.999258 36.1616 0.841424 36.141 0.683589 36.1273Z" fill="#092270"/>
</svg>
