<svg width="28" height="28" viewBox="0 0 28 28" fill="none" xmlns="http://www.w3.org/2000/svg">
<path d="M14 8.90909C16.8127 8.90909 19.0909 11.1873 19.0909 14C19.0909 16.8127 16.8127 19.0909 14 19.0909C11.1873 19.0909 8.90909 16.8127 8.90909 14C8.90909 11.1873 11.1873 8.90909 14 8.90909ZM2.62182 12.7273C3.20727 7.42 7.42 3.20727 12.7273 2.62182V0H15.2727V2.62182C20.58 3.20727 24.7927 7.42 25.3782 12.7273H28V15.2727H25.3782C24.7927 20.58 20.58 24.7927 15.2727 25.3782V28H12.7273V25.3782C7.42 24.7927 3.20727 20.58 2.62182 15.2727H0V12.7273H2.62182ZM14 22.9091C18.9255 22.9091 22.9091 18.9255 22.9091 14C22.9091 9.07455 18.9255 5.09091 14 5.09091C9.07455 5.09091 5.09091 9.07455 5.09091 14C5.09091 18.9255 9.07455 22.9091 14 22.9091Z" fill="white"/>
</svg>
