<svg width="27" height="27" viewBox="0 0 27 27" fill="none" xmlns="http://www.w3.org/2000/svg">
<g clip-path="url(#clip0_11_3)">
<path d="M27 13.5767C27 6.05966 20.9746 0 13.5 0C6.02542 0 0 6.05966 0 13.5767C0 20.3267 4.95763 25.9261 11.3644 27V17.4886H7.9322V13.5767H11.3644V10.5852C11.3644 7.21023 13.3475 5.29261 16.4746 5.29261C17.9237 5.29261 19.5254 5.52273 19.5254 5.52273V8.89773H17.8475C16.1695 8.89773 15.6356 9.97159 15.6356 11.0455V13.5767H19.3729L18.7627 17.4886H15.6356V27C22.0424 25.9261 27 20.3267 27 13.5767Z" fill="#337FFF"/>
</g>
<defs>
<clipPath id="clip0_11_3">
<rect width="27" height="27" fill="white"/>
</clipPath>
</defs>
</svg>
