<svg width="25" height="27" viewBox="0 0 25 27" fill="none" xmlns="http://www.w3.org/2000/svg">
<path d="M2.50416 27C1.6729 27 0.872818 27 0 27C0.270158 21.7575 2.82627 18.0509 7.57481 15.7368C4.88362 13.7197 3.51205 11.0882 3.83416 7.71945C4.06276 5.39514 5.133 3.48039 6.95137 1.98546C10.6401 -1.04537 16.0328 -0.553881 19.1916 3.10154C22.2153 6.60337 22.0594 12.4398 17.4252 15.7266C22.1633 18.0304 24.7298 21.7473 25 27C24.1272 27 23.3167 27 22.5062 27C22.4127 20.8769 17.1862 17.0986 12.3337 17.201C7.367 17.2932 2.60806 21.1841 2.50416 27ZM12.5104 14.7334C15.9601 14.7334 18.724 12.0199 18.7344 8.62051C18.7448 5.21083 15.9705 2.45647 12.5208 2.45647C9.07107 2.45647 6.27598 5.20059 6.27598 8.60003C6.26559 11.9995 9.0399 14.7436 12.5104 14.7334Z" fill="#CACACA"/>
</svg>
