<svg width="23" height="23" viewBox="0 0 23 23" fill="none" xmlns="http://www.w3.org/2000/svg">
<path d="M22.9881 22.9867C22.9881 22.5338 23.0149 22.0677 22.9881 21.6282C22.948 21.0554 22.5063 20.6426 21.9308 20.5893C21.9174 20.5893 21.8907 20.5893 21.8505 20.576C21.8505 20.4961 21.8505 20.4028 21.8505 20.3229C21.8505 19.9899 21.8639 19.657 21.8371 19.324C21.7836 18.7513 21.3553 18.3517 20.7798 18.2984C20.7665 18.2984 20.7397 18.2984 20.7129 18.2851C20.7129 15.2484 20.7129 12.2117 20.7129 9.16172C21.0207 9.1484 21.2884 9.04185 21.5025 8.82875C21.7301 8.61565 21.8237 8.33595 21.8505 8.02962C21.9308 8.0163 22.0111 8.00298 22.078 7.98966C22.5598 7.88311 22.9078 7.51018 22.9881 7.01738C23.0015 6.89751 22.9747 6.84424 22.881 6.79096C21.0877 5.67218 19.3077 4.5534 17.5143 3.43461C15.8949 2.42238 14.2889 1.41015 12.6695 0.397916C11.7995 -0.134838 10.9296 -0.134838 10.0731 0.411235C6.76738 2.52893 3.46166 4.65995 0.142572 6.77765C0.0355053 6.84424 0.00873947 6.91083 0.0221214 7.0307C0.115807 7.56346 0.530693 7.96302 1.06603 8.00298C1.0928 8.00298 1.10618 8.00298 1.14633 8.0163C1.15971 8.32263 1.26678 8.60233 1.48092 8.81543C1.69505 9.02853 1.96272 9.1484 2.28392 9.16172C2.28392 12.2117 2.28392 15.2484 2.28392 18.2984C2.217 18.3118 2.15009 18.3118 2.08317 18.3251C1.53445 18.4316 1.14633 18.8978 1.14633 19.4572C1.14633 19.8301 1.14633 20.203 1.14633 20.576C1.06603 20.5893 0.999113 20.5893 0.945578 20.6026C0.450392 20.6958 0.062273 21.0688 0.0221214 21.5749C-0.0180283 22.041 0.00873756 22.5205 0.00873756 23C7.67745 22.9867 15.3328 22.9867 22.9881 22.9867ZM4.62602 9.16172C5.65655 9.16172 6.66031 9.16172 7.67745 9.16172C7.67745 12.2117 7.67745 15.2484 7.67745 18.2851C6.66031 18.2851 5.64317 18.2851 4.62602 18.2851C4.62602 15.2351 4.62602 12.2117 4.62602 9.16172ZM15.3462 18.2851C15.3462 15.2351 15.3462 12.1984 15.3462 9.16172C16.3633 9.16172 17.3804 9.16172 18.3976 9.16172C18.3976 12.2117 18.3976 15.2484 18.3976 18.2851C17.3671 18.2851 16.3633 18.2851 15.3462 18.2851ZM13.0308 9.16172C13.0308 12.2117 13.0308 15.2484 13.0308 18.2851C12.0137 18.2851 11.0099 18.2851 9.99278 18.2851C9.99278 15.2351 9.99278 12.1984 9.99278 9.16172C11.0099 9.16172 12.0137 9.16172 13.0308 9.16172Z" fill="#BC0063"/>
</svg>
