<svg width="27" height="27" viewBox="0 0 27 27" fill="none" xmlns="http://www.w3.org/2000/svg">
<g clip-path="url(#clip0_11_5)">
<path d="M1.41626 7.41998C2.1244 6.03536 3.05042 4.82826 4.17618 3.76317C5.7014 2.3253 7.48082 1.27797 9.51444 0.638914C11.4391 0.0353635 13.4183 -0.1244 15.4337 0.088618C17.6853 0.337139 19.737 1.10045 21.5709 2.39631C22.0612 2.73359 22.5151 3.12412 22.9691 3.47915C21.6436 4.77501 20.3725 6.03536 19.0834 7.27797C18.7747 7.0472 18.4842 6.79868 18.1573 6.58566C16.6503 5.57382 14.9617 5.14779 13.1641 5.30755C10.0592 5.57382 7.84397 7.15371 6.39138 9.81643C6.2098 10.1537 6.0827 10.5087 5.93744 10.8638C5.55614 10.5797 5.17483 10.2957 4.79353 9.99394C4.08539 9.4614 3.37726 8.9111 2.66912 8.37856C2.32413 8.11229 1.96098 7.84601 1.59783 7.59749C1.5252 7.54424 1.47073 7.47323 1.41626 7.41998Z" fill="#C34030"/>
<path d="M5.91929 16.1361C6.19165 16.6864 6.40953 17.2544 6.71821 17.7515C8.09817 19.9349 10.0773 21.3018 12.692 21.6391C14.7075 21.9053 16.6321 21.5503 18.3934 20.4675C18.4479 20.432 18.4842 20.4142 18.5387 20.3964C18.811 20.6095 19.0834 20.8047 19.3557 21.0177C19.6826 21.2663 19.9912 21.5325 20.3181 21.7811C20.8446 22.1716 21.3712 22.5444 21.8978 22.9349C22.2246 23.1834 22.5514 23.4497 22.8964 23.6982C22.3154 24.2663 21.6436 24.7278 20.9354 25.1361C18.5205 26.5385 15.8877 27.071 13.0914 26.9467C10.386 26.8402 7.9166 25.9882 5.71956 24.4615C3.8675 23.1657 2.43307 21.5325 1.41626 19.5444C1.45257 19.4911 1.48889 19.4379 1.5252 19.3846H1.54336H1.56152C1.59783 19.3669 1.65231 19.3491 1.68862 19.3314C2.26966 18.9053 2.85069 18.4793 3.43173 18.0355C4.23065 17.432 5.06589 16.7751 5.91929 16.1361Z" fill="#62A053"/>
<path d="M22.8782 23.7337C22.5514 23.4852 22.2246 23.2189 21.8796 22.9704C21.353 22.5799 20.8265 22.2071 20.2999 21.8166C19.9731 21.568 19.6644 21.3018 19.3376 21.0533C19.0652 20.8402 18.7928 20.6272 18.5205 20.432C19.0834 20.0237 19.6099 19.5799 20.0275 19.0296C20.6449 18.213 21.0625 17.3077 21.2622 16.2604C20.9354 16.2604 20.6086 16.2604 20.2999 16.2604C20.2091 16.2249 20.1365 16.1894 20.0457 16.1894C18.0302 16.1894 16.0329 16.1894 14.0174 16.1894C13.9085 16.1361 13.7996 16.1538 13.7996 15.9763C13.7996 14.3254 13.7996 12.6746 13.7996 11.0237C13.854 11.0237 13.8903 11.0237 13.9448 11.0237C18.121 11.0237 22.2972 11.0237 26.4552 11.0237H26.4734C26.6187 11.0059 26.6913 11.0414 26.6913 11.2012C26.6913 11.2544 26.7458 11.2899 26.7639 11.3432C26.9455 12.3728 27 13.4201 26.9636 14.4675C26.9092 15.6213 26.7458 16.7574 26.4371 17.8757C25.8016 20.1302 24.6758 22.0828 22.9327 23.6982C22.9327 23.716 22.9146 23.716 22.8782 23.7337Z" fill="#557CE6"/>
<path d="M5.91927 16.1361C5.08403 16.7751 4.24879 17.4142 3.3954 18.0533C2.81436 18.497 2.23332 18.9231 1.65229 19.3491C1.61597 19.3846 1.5615 19.3846 1.52519 19.4024L1.50703 19.3846C1.50703 19.4024 1.50703 19.4024 1.50703 19.4201H1.48887C1.19835 19.2071 1.10757 18.8698 0.980467 18.568C0.835208 18.213 0.744421 17.8402 0.617319 17.4852C0.47206 17.0769 0.272329 16.7041 0.290487 16.2604C0.290487 16.2426 0.290487 16.2249 0.290487 16.2071C0.236015 15.8876 0.181543 15.5858 0.12707 15.2663C0.12707 15.2308 0.12707 15.1775 0.12707 15.142C0.0725983 14.8225 -0.0181885 14.4852 -0.0181885 14.1657C-3.11118e-05 13.6509 -0.0181885 13.1183 0.054441 12.6036C0.12707 12.1243 0.0907557 11.645 0.236015 11.1834C0.344959 10.7574 0.381274 10.3136 0.508375 9.88757C0.617319 9.46154 0.798893 9.07101 0.944152 8.66272C0.998624 8.52071 1.08941 8.39645 1.16204 8.25444C1.23467 8.09467 1.27098 7.91716 1.34361 7.7574C1.37993 7.68639 1.48887 7.65089 1.57966 7.59763C1.94281 7.86391 2.2878 8.11243 2.65094 8.3787C3.35908 8.91124 4.06722 9.46154 4.77536 9.99408C5.15666 10.2781 5.53796 10.5621 5.91927 10.8639C5.82848 11.2544 5.71954 11.6627 5.62875 12.0533C5.44718 12.8343 5.42902 13.6154 5.53797 14.4142C5.62875 14.9822 5.79217 15.568 5.91927 16.1361Z" fill="#DEB22B"/>
<path d="M13.8178 11.0237C13.8178 12.6746 13.8178 14.3254 13.8178 15.9763C13.8178 16.1538 13.9267 16.1361 14.0357 16.1361C16.0511 16.1361 18.0484 16.1361 20.0639 16.1361C20.1547 16.1361 20.2273 16.1894 20.3181 16.2071C20.1365 16.2071 19.9368 16.2071 19.7552 16.2249C17.8306 16.2249 15.9059 16.2249 13.9812 16.2249C13.9086 16.2249 13.8359 16.2249 13.7815 16.2071C13.7815 14.6982 13.7815 13.1716 13.7815 11.6627C13.7815 11.432 13.7815 11.2189 13.7633 10.9882C13.7815 11.0059 13.7996 11.0059 13.8178 11.0237Z" fill="#5775C0"/>
<path d="M13.8178 11.0237C13.7996 11.0059 13.7815 11.0059 13.7633 11.0059C13.8359 10.9882 13.9267 10.9704 13.9994 10.9704C18.1392 10.9704 22.2791 10.9704 26.419 10.9704C26.7821 10.9704 26.7821 10.9704 26.8003 11.3432C26.7821 11.2899 26.7277 11.2544 26.7277 11.2012C26.7458 11.0414 26.655 11.0059 26.5098 11.0237H26.4916C22.3154 11.0237 18.1392 11.0237 13.9812 11.0237C13.9086 11.0237 13.8722 11.0237 13.8178 11.0237Z" fill="#6E86BF"/>
<path d="M13.7632 11.0059C13.7632 11.2367 13.7814 11.4497 13.7814 11.6805C13.7814 13.1894 13.7814 14.716 13.7814 16.2249C13.7632 16.1716 13.7451 16.1183 13.7451 16.0651C13.7451 14.432 13.7451 12.7988 13.7451 11.1834C13.7269 11.1124 13.7451 11.0592 13.7632 11.0059Z" fill="#6E86BF"/>
</g>
<defs>
<clipPath id="clip0_11_5">
<rect width="27" height="27" fill="white"/>
</clipPath>
</defs>
</svg>
