<svg width="12" height="12" viewBox="0 0 12 12" fill="none" xmlns="http://www.w3.org/2000/svg">
<g clip-path="url(#clip0_35_64)">
<path d="M0 12C0 11.1835 0 10.4051 0 9.62659C0 9.53165 0.0949367 9.41773 0.170886 9.34178C2.52532 6.98735 4.89873 4.61393 7.25317 2.2595C7.29114 2.22152 7.32911 2.22153 7.36709 2.20254C8.18354 3.01899 9 3.83545 9.89241 4.72785C9.68354 4.91773 9.43671 5.1076 9.22785 5.31646C7.06329 7.44304 4.93671 9.58861 2.77215 11.7152C2.62025 11.8671 2.35443 11.981 2.12658 11.981C1.44304 12.019 0.740506 12 0 12ZM10.6709 3.87342C11.0127 3.51266 11.4114 3.13292 11.7722 2.73418C12.057 2.43039 12.0759 2.06963 11.7911 1.78482C11.2785 1.25317 10.7658 0.721525 10.2152 0.208867C9.94937 -0.0569559 9.6076 -0.0759432 9.34177 0.170892C8.90506 0.569626 8.48734 0.987348 8.12658 1.34811C8.98101 2.20254 9.81646 3.03798 10.6709 3.87342Z" fill="white"/>
</g>
<defs>
<clipPath id="clip0_35_64">
<rect width="12" height="12" fill="white"/>
</clipPath>
</defs>
</svg>
