<svg width="15" height="11" viewBox="0 0 15 11" fill="none" xmlns="http://www.w3.org/2000/svg">
<g clip-path="url(#clip0_37_22)">
<path d="M14.9844 1.91771C14.9844 1.82566 14.9844 1.73361 14.9689 1.64156C14.8133 0.659693 14.0353 0 13.0239 0C11.1878 0 9.3361 0 7.5 0C5.64834 0 3.79668 0 1.94502 0C0.855809 0 0 0.843794 0 1.91771C0 4.31102 0 6.70432 0 9.09763C0 10.1715 0.855809 11 1.92946 11C5.63278 11 9.35166 11 13.055 11C14.1442 11 14.9844 10.1562 14.9844 9.08229C15 6.70432 15 4.31102 14.9844 1.91771ZM13.4284 2.20921L7.5 5.76848L1.61826 2.19386C1.50934 2.1325 1.47822 1.97908 1.54046 1.87169C1.6027 1.7643 1.7583 1.73361 1.86722 1.79498L7.5 5.21618L13.195 1.79498C13.3039 1.73361 13.444 1.7643 13.5218 1.87169C13.584 1.99442 13.5373 2.1325 13.4284 2.20921Z" fill="#A9A9A9"/>
</g>
<defs>
<clipPath id="clip0_37_22">
<rect width="15" height="11" fill="white"/>
</clipPath>
</defs>
</svg>
