<svg width="26" height="19" viewBox="0 0 26 19" fill="none" xmlns="http://www.w3.org/2000/svg">
<path d="M0 8.66611C0.148912 8.48992 0.297824 8.3431 0.476518 8.16692C3.09737 5.58291 5.68843 3.02826 8.30928 0.444247C8.36884 0.385519 8.45819 0.297428 8.51775 0.2387C8.90493 -0.0843012 9.44101 -0.0843012 9.76861 0.268064C10.126 0.591066 10.126 1.14898 9.7984 1.50134C9.70905 1.58943 9.64948 1.67753 9.56014 1.76562C7.53494 3.76235 5.50974 5.75909 3.48454 7.75583C3.39519 7.84392 3.33562 7.93201 3.21649 8.07883C3.42497 8.07883 3.57388 8.10819 3.69301 8.10819C10.6919 8.10819 17.6609 8.10819 24.6598 8.10819C24.8087 8.10819 24.9278 8.10819 25.0767 8.10819C25.4044 8.10819 25.6724 8.22565 25.8511 8.48992C25.8809 8.54865 25.9702 8.60738 26 8.63674C26 8.87165 26 9.10656 26 9.34147C25.9702 9.37084 25.9404 9.4002 25.9107 9.4002C25.6128 9.87002 25.1959 9.89939 24.6896 9.89939C17.6609 9.89939 10.6323 9.89939 3.63345 9.89939C3.51432 9.89939 3.36541 9.89939 3.18671 9.92875C3.30584 10.0462 3.36541 10.1343 3.45475 10.2224C5.53952 12.3072 7.65407 14.3627 9.73883 16.4475C10.2153 16.9173 10.126 17.5927 9.56014 17.9157C9.23253 18.0919 8.84536 18.0625 8.54754 17.8276C8.45819 17.7395 8.36884 17.6514 8.2795 17.5633C5.65865 14.9793 3.06758 12.4247 0.476518 9.84066C0.297824 9.69384 0.148912 9.51766 0 9.37084C0 9.13593 0 8.90102 0 8.66611Z" fill="#1E201D"/>
</svg>
