<svg width="26" height="18" viewBox="0 0 26 18" fill="none" xmlns="http://www.w3.org/2000/svg">
<g clip-path="url(#clip0_35_19)">
<path d="M0 8.66254C0.148912 8.48635 0.297824 8.33953 0.476518 8.16335C3.09737 5.57934 5.68843 3.02469 8.30928 0.440676C8.36884 0.381949 8.45819 0.293857 8.51775 0.23513C8.90493 -0.0878717 9.44101 -0.0878717 9.76861 0.264494C10.126 0.587495 10.126 1.14541 9.7984 1.49777C9.70905 1.58586 9.64948 1.67396 9.56014 1.76205C7.53494 3.75878 5.50974 5.75552 3.48454 7.75226C3.39519 7.84035 3.33562 7.92844 3.21649 8.07526C3.42497 8.07526 3.57388 8.10462 3.69301 8.10462C10.6919 8.10462 17.6609 8.10462 24.6598 8.10462C24.8087 8.10462 24.9278 8.10462 25.0767 8.10462C25.4044 8.10462 25.6724 8.22208 25.8511 8.48635C25.8809 8.54508 25.9702 8.60381 26 8.63317C26 8.86808 26 9.10299 26 9.3379C25.9702 9.36727 25.9404 9.39663 25.9107 9.39663C25.6128 9.86645 25.1959 9.89582 24.6896 9.89582C17.6609 9.89582 10.6323 9.89582 3.63345 9.89582C3.51432 9.89582 3.36541 9.89581 3.18671 9.92518C3.30584 10.0426 3.36541 10.1307 3.45475 10.2188C5.53952 12.3036 7.65407 14.3591 9.73883 16.4439C10.2153 16.9138 10.126 17.5891 9.56014 17.9121C9.23253 18.0883 8.84536 18.0589 8.54754 17.824C8.45819 17.7359 8.36884 17.6479 8.2795 17.5598C5.65865 14.9757 3.06758 12.4211 0.476518 9.83709C0.297824 9.69027 0.148912 9.51409 0 9.36727C0 9.13236 0 8.89745 0 8.66254Z" fill="#1E201D"/>
</g>
<defs>
<clipPath id="clip0_35_19">
<rect width="26" height="18" fill="white"/>
</clipPath>
</defs>
</svg>
