<svg width="16" height="17" viewBox="0 0 16 17" fill="none" xmlns="http://www.w3.org/2000/svg">
<g clip-path="url(#clip0_35_113)">
<path d="M3.64777 1.71566C3.64777 1.40684 3.64777 1.10946 3.64777 0.812081C3.64777 0.66339 3.64777 0.526137 3.65914 0.377446C3.6705 0.20588 3.82959 0.045751 4.00004 0.0114377C4.30686 -0.0571888 4.56823 0.194442 4.55686 0.491824C4.5455 0.857832 4.55686 1.23528 4.55686 1.61272C4.55686 1.64704 4.55686 1.68135 4.55686 1.71566C6.78414 1.71566 9.01141 1.71566 11.2387 1.71566C11.2387 1.68135 11.2387 1.65848 11.2387 1.62416C11.2387 1.23528 11.2387 0.857832 11.2387 0.468948C11.2387 0.251631 11.375 0.0800643 11.5569 0.0228755C11.7728 -0.0343133 11.9887 0.045751 12.091 0.240193C12.125 0.297382 12.1364 0.366008 12.1364 0.423197C12.1364 0.823519 12.1364 1.2124 12.1364 1.61272C12.1364 1.64704 12.1364 1.68135 12.1364 1.71566C12.1705 1.71566 12.2046 1.71566 12.2387 1.71566C12.9091 1.71566 13.5796 1.71566 14.25 1.71566C14.625 1.71566 14.9546 1.84148 15.2614 2.0588C15.3182 2.10455 15.375 2.1503 15.4319 2.19605C15.466 2.21893 15.5 2.23036 15.5114 2.2418C15.5455 2.29899 15.5682 2.34474 15.6023 2.39049C15.7955 2.65356 15.9319 2.92807 15.966 3.24832C15.9773 3.32839 15.9773 3.40845 15.9773 3.47708C15.9773 7.2401 15.9773 11.0146 15.9773 14.7776C15.9773 15.075 15.8864 15.3495 15.7387 15.6125C15.5 16.0129 15.1591 16.2988 14.716 16.4246C14.5569 16.4704 14.375 16.5047 14.2046 16.5047C10.0455 16.5047 5.88641 16.5047 1.72732 16.5047C1.31823 16.5047 0.943226 16.3674 0.613681 16.0929C0.272772 15.8184 0.0795898 15.4524 -0.0226829 15.0292C-0.0340465 14.9606 -0.0454102 14.892 -0.0454102 14.8233C-0.0454102 11.026 -0.0454102 7.22867 -0.0454102 3.43133C-0.0454102 3.06532 0.0795898 2.73363 0.295499 2.43624C0.57959 2.04736 0.95459 1.8186 1.4205 1.7271C1.48868 1.71566 1.55686 1.70423 1.62504 1.70423C2.25004 1.70423 2.87504 1.70423 3.48868 1.70423C3.56823 1.71566 3.60232 1.71566 3.64777 1.71566ZM0.909135 5.95907C0.909135 6.00482 0.909135 6.03914 0.909135 6.08489C0.909135 8.93289 0.909135 11.7809 0.909135 14.6289C0.909135 14.6975 0.920499 14.7776 0.920499 14.8462C0.977317 15.2809 1.35232 15.6011 1.77277 15.6011C5.89777 15.6011 10.0341 15.6011 14.1591 15.6011C14.2273 15.6011 14.2955 15.6011 14.3523 15.5897C14.7728 15.5096 15.0796 15.155 15.0796 14.7204C15.0796 11.8381 15.0796 8.94433 15.0796 6.06201C15.0796 6.0277 15.0796 6.00482 15.0796 5.97051C10.3637 5.95907 5.63641 5.95907 0.909135 5.95907ZM12.9091 10.008C12.9091 9.19596 12.9091 8.38388 12.9091 7.58324C12.1023 7.58324 11.2955 7.58324 10.4887 7.58324C10.4887 8.39532 10.4887 9.19596 10.4887 10.008C11.2955 10.008 12.1023 10.008 12.9091 10.008ZM5.5455 7.5718C4.73868 7.5718 3.93186 7.5718 3.12504 7.5718C3.12504 7.60611 3.12504 7.62899 3.12504 7.6633C3.12504 8.40675 3.12504 9.16165 3.12504 9.9051C3.12504 9.9966 3.14777 10.008 3.22732 10.008C3.96595 10.008 4.70459 10.008 5.44323 10.008C5.47732 10.008 5.51141 10.008 5.5455 10.008C5.5455 9.19596 5.5455 8.38388 5.5455 7.5718ZM6.80686 7.5718C6.80686 8.38388 6.80686 9.19596 6.80686 10.008C7.61368 10.008 8.4205 10.008 9.22732 10.008C9.22732 9.19596 9.22732 8.38388 9.22732 7.5718C8.4205 7.5718 7.61368 7.5718 6.80686 7.5718ZM3.12504 13.7368C3.93186 13.7368 4.73868 13.7368 5.5455 13.7368C5.5455 12.9247 5.5455 12.1126 5.5455 11.3119C4.73868 11.3119 3.93186 11.3119 3.12504 11.3119C3.12504 12.124 3.12504 12.9361 3.12504 13.7368ZM6.80686 13.7368C7.61368 13.7368 8.4205 13.7368 9.22732 13.7368C9.22732 12.9247 9.22732 12.1126 9.22732 11.3119C8.4205 11.3119 7.61368 11.3119 6.80686 11.3119C6.80686 12.124 6.80686 12.9361 6.80686 13.7368Z" fill="black"/>
</g>
<defs>
<clipPath id="clip0_35_113">
<rect width="16" height="16.5161" fill="white"/>
</clipPath>
</defs>
</svg>
